<svg width="43" height="43" viewBox="0 0 43 43" fill="none" xmlns="http://www.w3.org/2000/svg">
<circle opacity="0.8" cx="21.5" cy="21.5" r="21.5" fill="#515151"/>
<path fill-rule="evenodd" clip-rule="evenodd" d="M25.9425 10.724C26.1925 10.974 26.3329 11.3131 26.3329 11.6667C26.3329 12.0202 26.1925 12.3593 25.9425 12.6093L17.5519 21L25.9425 29.3907C26.1854 29.6421 26.3198 29.9789 26.3168 30.3285C26.3137 30.6781 26.1735 31.0125 25.9263 31.2598C25.6791 31.507 25.3447 31.6472 24.9951 31.6502C24.6455 31.6533 24.3087 31.5189 24.0572 31.276L14.7239 21.9427C14.4739 21.6926 14.3335 21.3536 14.3335 21C14.3335 20.6464 14.4739 20.3074 14.7239 20.0573L24.0572 10.724C24.3072 10.474 24.6463 10.3336 24.9999 10.3336C25.3534 10.3336 25.6925 10.474 25.9425 10.724Z" fill="white"/>
</svg>
