<svg width="43" height="43" viewBox="0 0 43 43" fill="none" xmlns="http://www.w3.org/2000/svg">
<circle opacity="0.8" cx="21.5" cy="21.5" r="21.5" transform="rotate(-180 21.5 21.5)" fill="#515151"/>
<path fill-rule="evenodd" clip-rule="evenodd" d="M17.0575 32.276C16.8075 32.026 16.6671 31.6869 16.6671 31.3333C16.6671 30.9798 16.8075 30.6407 17.0575 30.3907L25.4481 22L17.0575 13.6093C16.8146 13.3579 16.6802 13.0211 16.6832 12.6715C16.6863 12.3219 16.8265 11.9875 17.0737 11.7402C17.3209 11.493 17.6553 11.3528 18.0049 11.3498C18.3545 11.3467 18.6913 11.4811 18.9428 11.724L28.2761 21.0573C28.5261 21.3074 28.6665 21.6464 28.6665 22C28.6665 22.3536 28.5261 22.6926 28.2761 22.9427L18.9428 32.276C18.6928 32.526 18.3537 32.6664 18.0001 32.6664C17.6466 32.6664 17.3075 32.526 17.0575 32.276Z" fill="white"/>
</svg>
