<svg width="22" height="18" viewBox="0 0 22 18" fill="none" xmlns="http://www.w3.org/2000/svg">
<path fill-rule="evenodd" clip-rule="evenodd" d="M1.66667 0.833336C1.35725 0.833336 1.0605 0.956252 0.841709 1.17504C0.622916 1.39384 0.5 1.69058 0.5 2C0.5 2.30942 0.622916 2.60617 0.841709 2.82496C1.0605 3.04375 1.35725 3.16667 1.66667 3.16667H20.3333C20.6428 3.16667 20.9395 3.04375 21.1583 2.82496C21.3771 2.60617 21.5 2.30942 21.5 2C21.5 1.69058 21.3771 1.39384 21.1583 1.17504C20.9395 0.956252 20.6428 0.833336 20.3333 0.833336H1.66667ZM0.5 9C0.5 8.69058 0.622916 8.39384 0.841709 8.17504C1.0605 7.95625 1.35725 7.83334 1.66667 7.83334H20.3333C20.6428 7.83334 20.9395 7.95625 21.1583 8.17504C21.3771 8.39384 21.5 8.69058 21.5 9C21.5 9.30942 21.3771 9.60617 21.1583 9.82496C20.9395 10.0438 20.6428 10.1667 20.3333 10.1667H1.66667C1.35725 10.1667 1.0605 10.0438 0.841709 9.82496C0.622916 9.60617 0.5 9.30942 0.5 9ZM0.5 16C0.5 15.6906 0.622916 15.3938 0.841709 15.175C1.0605 14.9563 1.35725 14.8333 1.66667 14.8333H20.3333C20.6428 14.8333 20.9395 14.9563 21.1583 15.175C21.3771 15.3938 21.5 15.6906 21.5 16C21.5 16.3094 21.3771 16.6062 21.1583 16.825C20.9395 17.0438 20.6428 17.1667 20.3333 17.1667H1.66667C1.35725 17.1667 1.0605 17.0438 0.841709 16.825C0.622916 16.6062 0.5 16.3094 0.5 16Z" fill="white"/>
</svg>
