<svg width="18" height="18" viewBox="0 0 18 18" fill="none" xmlns="http://www.w3.org/2000/svg">
<path fill-rule="evenodd" clip-rule="evenodd" d="M7 2C5.67392 2 4.40215 2.52678 3.46447 3.46447C2.52678 4.40215 2 5.67392 2 7C2 8.32608 2.52678 9.59785 3.46447 10.5355C4.40215 11.4732 5.67392 12 7 12C8.32608 12 9.59785 11.4732 10.5355 10.5355C11.4732 9.59785 12 8.32608 12 7C12 5.67392 11.4732 4.40215 10.5355 3.46447C9.59785 2.52678 8.32608 2 7 2ZM2.20582e-07 7C2.1098e-06 5.89126 0.263375 4.79838 0.768432 3.81135C1.27349 2.82433 2.00578 1.97139 2.90501 1.32278C3.80423 0.674163 4.84467 0.248431 5.94064 0.0806374C7.03661 -0.0871566 8.15676 0.00778714 9.20885 0.35765C10.2609 0.707513 11.2149 1.30229 11.9921 2.093C12.7693 2.8837 13.3476 3.84773 13.6794 4.90568C14.0111 5.96363 14.0868 7.08525 13.9001 8.17817C13.7135 9.27109 13.27 10.3041 12.606 11.192L17.707 16.292C17.8946 16.4795 18.0001 16.7339 18.0002 16.9991C18.0003 17.2644 17.895 17.5189 17.7075 17.7065C17.52 17.8941 17.2656 17.9996 17.0004 17.9997C16.7351 17.9998 16.4806 17.8945 16.293 17.707L11.193 12.607C10.1525 13.3853 8.91592 13.8587 7.62167 13.9741C6.32741 14.0895 5.02658 13.8424 3.86481 13.2604C2.70304 12.6784 1.72618 11.7846 1.0436 10.6789C0.361026 9.57322 -0.000325925 8.29939 2.20582e-07 7Z" fill="#36B972"/>
</svg>
