<svg width="20" height="19" viewBox="0 0 20 19" fill="none" xmlns="http://www.w3.org/2000/svg">
<path fill-rule="evenodd" clip-rule="evenodd" d="M8.85337 1.131C9.28837 0.128004 10.7124 0.128004 11.1474 1.131L13.1274 5.697L18.0814 6.169C19.1694 6.272 19.6094 7.626 18.7894 8.35L15.0594 11.644L16.1414 16.501C16.3794 17.569 15.2274 18.405 14.2854 17.849L10.0004 15.32L5.71537 17.85C4.77337 18.406 3.62137 17.57 3.85937 16.502L4.94137 11.645L1.21137 8.351C0.391374 7.627 0.831375 6.273 1.92037 6.17L6.87337 5.698L8.85337 1.132V1.131ZM10.0004 3.514L8.47337 7.034L8.23937 7.576L7.65137 7.632L3.83137 7.996L6.70737 10.536L7.15037 10.926L7.02237 11.502L6.18737 15.248L9.49237 13.297L10.0004 12.997L10.5084 13.297L13.8134 15.247L12.9784 11.502L12.8504 10.926L13.2934 10.536L16.1694 7.996L12.3494 7.632L11.7614 7.576L11.5274 7.034L10.0004 3.514Z" fill="#36B972"/>
</svg>
