<svg width="24" height="24" viewBox="0 0 24 24" fill="none" xmlns="http://www.w3.org/2000/svg">
<path fill-rule="evenodd" clip-rule="evenodd" d="M19.7073 5.707C19.8895 5.5184 19.9903 5.2658 19.988 5.0036C19.9857 4.7414 19.8805 4.49059 19.6951 4.30518C19.5097 4.11977 19.2589 4.0146 18.9967 4.01233C18.7345 4.01005 18.4819 4.11084 18.2933 4.293L14.0323 8.553C13.2683 8.10201 12.3761 7.9178 11.496 8.02935C10.6159 8.14089 9.79779 8.54186 9.17048 9.16918C8.54316 9.79649 8.14219 10.6146 8.03065 11.4947C7.9191 12.3748 8.10331 13.267 8.5543 14.031L4.2933 18.293C4.19779 18.3852 4.1216 18.4956 4.0692 18.6176C4.01679 18.7396 3.9892 18.8708 3.98805 19.0036C3.98689 19.1364 4.01219 19.2681 4.06248 19.391C4.11276 19.5138 4.18701 19.6255 4.2809 19.7194C4.37479 19.8133 4.48645 19.8875 4.60934 19.9378C4.73224 19.9881 4.86392 20.0134 4.9967 20.0123C5.12948 20.0111 5.2607 19.9835 5.3827 19.9311C5.50471 19.8787 5.61505 19.8025 5.7073 19.707L9.9683 15.447C10.7323 15.898 11.6245 16.0822 12.5046 15.9707C13.3847 15.8591 14.2028 15.4581 14.8301 14.8308C15.4574 14.2035 15.8584 13.3854 15.9699 12.5053C16.0815 11.6252 15.8973 10.733 15.4463 9.969L19.7073 5.707ZM12.5183 10.067C12.1791 9.97598 11.8219 9.97588 11.4827 10.0667C11.1434 10.1576 10.8341 10.3361 10.5857 10.5845C10.3374 10.8328 10.1589 11.1421 10.068 11.4814C9.97718 11.8206 9.97728 12.1778 10.0683 12.517L12.5183 10.067ZM11.4823 13.932L13.9323 11.482C14.0233 11.8212 14.0234 12.1784 13.9326 12.5176C13.8417 12.8569 13.6632 13.1662 13.4148 13.4145C13.1665 13.6629 12.8572 13.8414 12.5179 13.9323C12.1787 14.0231 11.8215 14.023 11.4823 13.932ZM15.7653 4.821C14.6303 4.32 13.3673 4 12.0003 4C9.1483 4 6.7573 5.395 4.9983 6.906C3.2333 8.423 2.0083 10.138 1.4643 10.97C1.26333 11.2759 1.15625 11.634 1.15625 12C1.15625 12.366 1.26333 12.7241 1.4643 13.03C2.25853 14.2394 3.17977 15.3604 4.2123 16.374L5.6263 14.96C4.7095 14.0618 3.88966 13.0696 3.1803 12C3.6903 11.227 4.7783 9.732 6.3013 8.423C7.8743 7.072 9.8163 6 12.0003 6C12.7552 6.00286 13.5047 6.12677 14.2203 6.367L15.7653 4.821ZM12.0003 18C11.2454 17.9971 10.4959 17.8732 9.7803 17.633L8.2363 19.18C9.3723 19.68 10.6343 20.001 12.0013 20.001C14.8533 20.001 17.2443 18.606 19.0033 17.095C20.7683 15.578 21.9933 13.863 22.5373 13.031C22.9483 12.403 22.9483 11.6 22.5373 10.971C21.7431 9.7616 20.8218 8.64057 19.7893 7.627L18.3743 9.04C19.2911 9.93822 20.111 10.9303 20.8203 12C20.3103 12.773 19.2223 14.268 17.6993 15.577C16.1263 16.928 14.1843 18 12.0003 18Z" fill="#36B972"/>
</svg>
