<svg width="18" height="18" viewBox="0 0 18 18" fill="none" xmlns="http://www.w3.org/2000/svg">
<path fill-rule="evenodd" clip-rule="evenodd" d="M1.17508 1.17546C1.39386 0.956735 1.69056 0.833861 1.99991 0.833861C2.30927 0.833861 2.60596 0.956735 2.82475 1.17546L8.99991 7.35093L15.1751 1.17546C15.2827 1.06403 15.4114 0.975144 15.5538 0.913997C15.6961 0.852851 15.8492 0.820665 16.0041 0.819319C16.159 0.817973 16.3126 0.847493 16.456 0.906156C16.5994 0.96482 16.7297 1.05145 16.8392 1.161C16.9487 1.27055 17.0354 1.40081 17.094 1.5442C17.1527 1.68759 17.1822 1.84122 17.1809 1.99614C17.1795 2.15105 17.1473 2.30415 17.0862 2.44649C17.0251 2.58884 16.9362 2.71758 16.8247 2.82521L10.6496 9.00067L16.8247 15.1761C17.0373 15.3962 17.1549 15.6909 17.1522 15.9968C17.1495 16.3027 17.0268 16.5954 16.8105 16.8117C16.5942 17.028 16.3016 17.1507 15.9957 17.1534C15.6898 17.156 15.3951 17.0384 15.1751 16.8259L8.99991 10.6504L2.82475 16.8259C2.60471 17.0384 2.31001 17.156 2.00411 17.1534C1.69822 17.1507 1.4056 17.028 1.18929 16.8117C0.972982 16.5954 0.850285 16.3027 0.847627 15.9968C0.844969 15.6909 0.962563 15.3962 1.17508 15.1761L7.35025 9.00067L1.17508 2.82521C0.956364 2.60641 0.833496 2.30971 0.833496 2.00033C0.833496 1.69096 0.956364 1.39425 1.17508 1.17546Z" fill="#515151"/>
</svg>
