<svg width="29" height="29" viewBox="0 0 29 29" fill="none" xmlns="http://www.w3.org/2000/svg">
<path fill-rule="evenodd" clip-rule="evenodd" d="M0.585573 1.5865C0.960629 1.21154 1.46924 1.0009 1.99957 1.0009C2.5299 1.0009 3.03852 1.21154 3.41357 1.5865L13.9996 12.173L24.5856 1.5865C24.7701 1.39547 24.9908 1.2431 25.2348 1.13827C25.4788 1.03345 25.7412 0.978274 26.0068 0.975967C26.2723 0.973659 26.5357 1.02426 26.7815 1.12483C27.0273 1.2254 27.2506 1.37391 27.4384 1.56171C27.6261 1.7495 27.7747 1.97281 27.8752 2.21862C27.9758 2.46442 28.0264 2.7278 28.0241 2.99337C28.0218 3.25894 27.9666 3.52139 27.8618 3.76541C27.757 4.00943 27.6046 4.23013 27.4136 4.41463L16.8276 15.0011L27.4136 25.5877C27.7779 25.9649 27.9795 26.4701 27.9749 26.9945C27.9704 27.5189 27.76 28.0206 27.3892 28.3914C27.0184 28.7623 26.5168 28.9726 25.9924 28.9772C25.468 28.9817 24.9628 28.7801 24.5856 28.4158L13.9996 17.8293L3.41357 28.4158C3.03637 28.7801 2.53116 28.9817 2.00677 28.9772C1.48238 28.9726 0.980752 28.7623 0.609936 28.3914C0.23912 28.0206 0.0287811 27.5189 0.0242243 26.9945C0.0196674 26.4701 0.221257 25.9649 0.585573 25.5877L11.1716 15.0011L0.585573 4.41463C0.210631 4.03956 0 3.53092 0 3.00057C0 2.47021 0.210631 1.96157 0.585573 1.5865Z" fill="white"/>
</svg>
