<svg width="22" height="21" viewBox="0 0 22 21" fill="none" xmlns="http://www.w3.org/2000/svg">
<path fill-rule="evenodd" clip-rule="evenodd" d="M6.33301 3.33333C4.47967 3.33333 2.99967 4.81733 2.99967 6.62266C2.99967 8.65466 4.17567 10.8227 5.99434 12.9467C7.52234 14.7293 9.37834 16.3373 10.9997 17.6347C12.621 16.3373 14.477 14.728 16.005 12.9467C17.8237 10.8227 18.9997 8.65333 18.9997 6.62266C18.9997 4.81733 17.5197 3.33333 15.6663 3.33333C13.813 3.33333 12.333 4.81733 12.333 6.62266C12.333 6.97628 12.1925 7.31542 11.9425 7.56547C11.6924 7.81552 11.3533 7.956 10.9997 7.956C10.6461 7.956 10.3069 7.81552 10.0569 7.56547C9.80682 7.31542 9.66634 6.97628 9.66634 6.62266C9.66634 4.81733 8.18634 3.33333 6.33301 3.33333ZM10.9997 2.87866C10.4351 2.18633 9.72327 1.62856 8.91602 1.24592C8.10876 0.86328 7.22636 0.665396 6.33301 0.666663C3.03167 0.666663 0.333008 3.32 0.333008 6.62266C0.333008 9.624 2.02234 12.4093 3.96901 14.6813C5.94367 16.9867 8.36501 18.972 10.181 20.3853C10.4151 20.5674 10.7031 20.6663 10.9997 20.6663C11.2962 20.6663 11.5843 20.5674 11.8183 20.3853C13.6343 18.972 16.0557 16.9853 18.0303 14.6813C19.977 12.4093 21.6663 9.624 21.6663 6.62266C21.6663 3.32 18.9677 0.666663 15.6663 0.666663C13.7863 0.666663 12.101 1.528 10.9997 2.87866Z" fill="white"/>
</svg>
