<svg width="48" height="43" viewBox="0 0 48 43" fill="none" xmlns="http://www.w3.org/2000/svg">
<g filter="url(#filter0_d_75_5102)">
<path d="M20.7354 8.00002L20.7354 32.3698L25.8137 34.118L25.8137 13.6843C25.8137 12.7214 26.2088 12.0821 26.8425 12.3019C27.671 12.5516 27.8321 13.4386 27.8321 14.3908L27.8321 22.5517C30.9931 24.2141 33.4817 22.5508 33.4817 18.1646C33.4817 13.6825 32.0226 11.6858 27.7294 10.0805C26.036 9.46779 22.8977 8.43395 20.7354 8.00002Z" fill="white"/>
<path d="M27.1338 30.5506L34.8102 27.0938C35.6786 26.6865 35.8113 26.1332 35.1085 25.8424C34.3947 25.5462 33.1205 25.6309 32.2428 26.0297L27.1338 28.31V24.6716L27.4264 24.5494C27.4264 24.5494 28.9052 23.8865 30.9853 23.6011C33.0613 23.3132 35.6073 23.6386 37.6083 24.5929C39.8625 25.4989 40.1152 26.8205 39.5449 27.7402C38.9663 28.6503 37.5634 29.3087 37.5634 29.3087L27.1338 34.049" fill="white"/>
<path d="M10.2799 30.9527C7.88417 30.1924 7.48467 28.5859 8.57757 27.6579C9.58568 26.8105 11.3025 26.1726 11.3025 26.1726L18.3997 23.2899V26.5708L13.2972 28.6544C12.3934 29.0227 12.2579 29.5409 12.9859 29.812C13.7269 30.0941 15.0419 30.0182 15.9462 29.6381L18.3997 28.6304V31.5593C18.2415 31.5895 18.0657 31.62 17.9052 31.6511C15.4591 32.1136 12.853 31.9237 10.2799 30.9527Z" fill="white"/>
<path fill-rule="evenodd" clip-rule="evenodd" d="M39.6882 33.9452C39.4865 34.1527 39.2219 34.2699 38.9369 34.2699C38.652 34.2699 38.3787 34.1527 38.1768 33.9452C37.9775 33.734 37.8672 33.4582 37.8672 33.1609C37.8672 32.5452 38.3455 32.0477 38.9369 32.0477C39.2219 32.0477 39.4865 32.1612 39.6882 32.3731C39.8875 32.5804 39.9999 32.8609 39.9999 33.1609C39.9999 33.4582 39.8875 33.734 39.6882 33.9452ZM38.0469 33.1609C38.0469 32.9078 38.1378 32.6756 38.3038 32.5036C38.4739 32.3278 38.701 32.233 38.9369 32.233C39.1731 32.233 39.3944 32.3278 39.5604 32.5036C39.7279 32.6756 39.8183 32.9078 39.8183 33.1609C39.8183 33.6682 39.4226 34.0799 38.9369 34.0799C38.701 34.0799 38.4739 33.9861 38.3038 33.8126C38.1378 33.6375 38.0469 33.4078 38.0469 33.1609ZM39.4236 33.6225C39.4331 33.6512 39.4446 33.6682 39.4611 33.6732L39.476 33.6819V33.7525H39.2446L39.2403 33.7383L39.2245 33.6956C39.2219 33.6732 39.2187 33.6437 39.2156 33.5944L39.2053 33.4011C39.2027 33.3325 39.1812 33.2926 39.1415 33.2662C39.112 33.256 39.0718 33.248 39.012 33.248H38.6907V33.7525H38.4799V32.5133H39.0326C39.1228 32.5133 39.1987 32.53 39.2568 32.5557C39.3733 32.6128 39.4331 32.7158 39.4331 32.8607C39.4331 32.9318 39.4161 32.9983 39.3869 33.0475C39.3616 33.0821 39.3317 33.1138 39.2991 33.1447L39.3078 33.1511C39.3299 33.1672 39.3518 33.1832 39.3647 33.2068C39.3941 33.2407 39.4075 33.2976 39.4099 33.3707L39.4152 33.5285C39.4161 33.5689 39.4192 33.6004 39.4236 33.6225ZM39.1742 33.0133C39.2085 32.9904 39.2245 32.9447 39.2245 32.8749C39.2245 32.8013 39.2001 32.7522 39.1522 32.7278C39.1228 32.7158 39.0862 32.7071 39.0371 32.7071H38.6907V33.0552H39.018C39.0831 33.0552 39.1348 33.0412 39.1742 33.0133Z" fill="white"/>
</g>
<defs>
<filter id="filter0_d_75_5102" x="0" y="0" width="48" height="42.2699" filterUnits="userSpaceOnUse" color-interpolation-filters="sRGB">
<feFlood flood-opacity="0" result="BackgroundImageFix"/>
<feColorMatrix in="SourceAlpha" type="matrix" values="0 0 0 0 0 0 0 0 0 0 0 0 0 0 0 0 0 0 127 0" result="hardAlpha"/>
<feOffset/>
<feGaussianBlur stdDeviation="4"/>
<feComposite in2="hardAlpha" operator="out"/>
<feColorMatrix type="matrix" values="0 0 0 0 0 0 0 0 0 0 0 0 0 0 0 0 0 0 0.25 0"/>
<feBlend mode="normal" in2="BackgroundImageFix" result="effect1_dropShadow_75_5102"/>
<feBlend mode="normal" in="SourceGraphic" in2="effect1_dropShadow_75_5102" result="shape"/>
</filter>
</defs>
</svg>
