<svg width="28" height="28" viewBox="0 0 28 28" fill="none" xmlns="http://www.w3.org/2000/svg">
<path fill-rule="evenodd" clip-rule="evenodd" d="M13.1748 2.67517C13.3936 2.45646 13.6903 2.33359 13.9997 2.33359C14.309 2.33359 14.6057 2.45646 14.8245 2.67517L19.4912 7.34184C19.7037 7.56187 19.8213 7.85658 19.8186 8.16247C19.816 8.46837 19.6933 8.76098 19.477 8.97729C19.2607 9.1936 18.968 9.3163 18.6621 9.31896C18.3562 9.32162 18.0615 9.20402 17.8415 8.99151L15.1663 6.31634V17.5C15.1663 17.8094 15.0434 18.1062 14.8246 18.325C14.6058 18.5438 14.3091 18.6667 13.9997 18.6667C13.6903 18.6667 13.3935 18.5438 13.1747 18.325C12.9559 18.1062 12.833 17.8094 12.833 17.5V6.31634L10.1578 8.99151C9.93781 9.20402 9.6431 9.32162 9.33721 9.31896C9.03131 9.3163 8.7387 9.1936 8.52239 8.97729C8.30608 8.76098 8.18338 8.46837 8.18072 8.16247C8.17806 7.85658 8.29566 7.56187 8.50818 7.34184L13.1748 2.67517ZM5.83301 15.1667C5.83301 14.2384 6.20176 13.3482 6.85813 12.6918C7.51451 12.0354 8.40475 11.6667 9.33301 11.6667H10.4997C10.8091 11.6667 11.1058 11.7896 11.3246 12.0084C11.5434 12.2272 11.6663 12.5239 11.6663 12.8333C11.6663 13.1428 11.5434 13.4395 11.3246 13.6583C11.1058 13.8771 10.8091 14 10.4997 14H9.33301C9.02359 14 8.72684 14.1229 8.50805 14.3417C8.28926 14.5605 8.16634 14.8573 8.16634 15.1667V22.1667C8.16634 22.4761 8.28926 22.7728 8.50805 22.9916C8.72684 23.2104 9.02359 23.3333 9.33301 23.3333H18.6663C18.9758 23.3333 19.2725 23.2104 19.4913 22.9916C19.7101 22.7728 19.833 22.4761 19.833 22.1667V15.1667C19.833 14.8573 19.7101 14.5605 19.4913 14.3417C19.2725 14.1229 18.9758 14 18.6663 14H17.4997C17.1903 14 16.8935 13.8771 16.6747 13.6583C16.4559 13.4395 16.333 13.1428 16.333 12.8333C16.333 12.5239 16.4559 12.2272 16.6747 12.0084C16.8935 11.7896 17.1903 11.6667 17.4997 11.6667H18.6663C19.5946 11.6667 20.4848 12.0354 21.1412 12.6918C21.7976 13.3482 22.1663 14.2384 22.1663 15.1667V22.1667C22.1663 23.0949 21.7976 23.9852 21.1412 24.6415C20.4848 25.2979 19.5946 25.6667 18.6663 25.6667H9.33301C8.40475 25.6667 7.51451 25.2979 6.85813 24.6415C6.20176 23.9852 5.83301 23.0949 5.83301 22.1667V15.1667Z" fill="#36B972"/>
</svg>
