<svg width="48" height="48" viewBox="0 0 48 48" fill="none" xmlns="http://www.w3.org/2000/svg">
<g filter="url(#filter0_d_75_5103)">
<path fill-rule="evenodd" clip-rule="evenodd" d="M24 8C27.0857 8 29.6381 8.98599 31.9619 10.6443C32 10.6443 32 10.6891 32 10.7339C32 10.7787 31.9619 10.7787 31.9238 10.7787C28.9524 10.0168 24.4571 13.0196 24.0381 13.3333H24H23.9619C23.5429 13.0196 19.0476 10.0168 16.0762 10.7787C16.0381 10.7787 16 10.7787 16 10.7339C16 10.6891 16 10.6443 16.0381 10.6443C18.3619 8.98599 20.9143 8 24 8ZM34.2246 36.158C36.6244 33.6743 28.6893 24.9037 24.0057 21.3333C24.0057 21.3333 23.967 21.3333 23.967 21.3721C19.322 24.9037 11.3482 33.6743 13.7868 36.158C16.4963 38.5641 20.0962 40 24.0057 40C27.9152 40 31.4763 38.5641 34.2246 36.158ZM12.3836 13.4093C12.3653 13.4093 12.3562 13.4193 12.347 13.4293C12.3379 13.4393 12.3288 13.4494 12.3105 13.4494C9.64384 16.3773 8 20.4282 8 24.8802C8 28.5301 9.13242 31.9393 10.9954 34.6266C10.9954 34.6667 11.032 34.6667 11.0685 34.6667C11.105 34.6667 11.105 34.6266 11.0685 34.5864C9.93607 30.7762 15.6712 21.5914 18.6301 17.741L18.6667 17.7008C18.6667 17.6802 18.6667 17.6701 18.6617 17.6653C18.657 17.6607 18.6478 17.6607 18.6301 17.6607C14.137 12.7675 12.6393 13.2889 12.3836 13.4093ZM29.3333 17.6843L29.3699 17.6441C33.863 12.7863 35.3607 13.3082 35.5799 13.3885C35.5951 13.3885 35.604 13.3885 35.6118 13.3914C35.6227 13.3954 35.6316 13.4052 35.653 13.4287C38.3562 16.3594 40 20.4143 40 24.8707C40 28.5241 38.8676 31.9366 37.0046 34.6265C37.0046 34.6667 36.968 34.6667 36.9315 34.6667V34.5864C38.0274 30.7724 32.3288 21.5786 29.3699 17.7244C29.3333 17.7244 29.3333 17.6843 29.3333 17.6843Z" fill="white"/>
</g>
<defs>
<filter id="filter0_d_75_5103" x="0" y="0" width="48" height="48" filterUnits="userSpaceOnUse" color-interpolation-filters="sRGB">
<feFlood flood-opacity="0" result="BackgroundImageFix"/>
<feColorMatrix in="SourceAlpha" type="matrix" values="0 0 0 0 0 0 0 0 0 0 0 0 0 0 0 0 0 0 127 0" result="hardAlpha"/>
<feOffset/>
<feGaussianBlur stdDeviation="4"/>
<feComposite in2="hardAlpha" operator="out"/>
<feColorMatrix type="matrix" values="0 0 0 0 0 0 0 0 0 0 0 0 0 0 0 0 0 0 0.25 0"/>
<feBlend mode="normal" in2="BackgroundImageFix" result="effect1_dropShadow_75_5103"/>
<feBlend mode="normal" in="SourceGraphic" in2="effect1_dropShadow_75_5103" result="shape"/>
</filter>
</defs>
</svg>
